<svg width="11" height="22" viewBox="0 0 11 22" fill="none" xmlns="http://www.w3.org/2000/svg">
<path fill-rule="evenodd" clip-rule="evenodd" d="M5.5104 21.0078C6.74647 21.006 7.74701 19.7736 7.74558 18.2546C7.74443 17.0326 7.74296 15.4766 7.74181 14.2546C7.74037 12.7356 6.7375 11.506 5.50144 11.5078C4.26538 11.5096 3.26483 12.742 3.26627 14.261C3.26742 15.483 3.26889 17.039 3.27004 18.261C3.27147 19.78 4.27434 21.0096 5.5104 21.0078Z" fill="#0A81D7"/>
<path d="M5.52241 5.3831C7.00805 5.38138 8.21101 4.17563 8.20929 2.68999C8.20756 1.20434 7.00182 0.00138413 5.51617 0.00310666C4.03053 0.0048292 2.82757 1.21058 2.82929 2.69622C2.83101 4.18187 4.03676 5.38483 5.52241 5.3831Z" fill="#0A81D7"/>
<path fill-rule="evenodd" clip-rule="evenodd" d="M7.52843 3.50466L10.3765 3.50051C10.7134 3.50002 10.9865 3.16362 10.9861 2.74962C10.9857 2.33562 10.712 2.00002 10.3751 2.00051L7.52704 2.00466C7.19016 2.00515 6.91705 2.34155 6.91744 2.75555C6.91782 3.16955 7.19154 3.50515 7.52843 3.50466ZM0.611685 3.51474L3.45976 3.51059C3.79664 3.5101 4.06975 3.1737 4.06936 2.7597C4.06898 2.3457 3.79526 2.0101 3.45837 2.01059L0.610301 2.01474C0.273415 2.01523 0.000310074 2.35162 0.000692129 2.76562C0.00107418 3.17962 0.274799 3.51523 0.611685 3.51474ZM2.45547 17.4691L2.45251 14.2621C2.4506 12.1911 3.81531 10.5101 5.50055 10.5076C7.1858 10.5052 8.55361 12.1822 8.55552 14.2532L8.55848 17.4602L8.65609 17.42C9.56957 17.0447 10.1846 15.9928 10.1835 14.8088L10.1784 9.2508C10.1772 7.9908 9.76923 6.7834 9.04337 5.89345C8.31751 5.00351 7.33406 4.50494 6.30875 4.50644C5.7725 4.50722 5.21753 4.50803 4.68128 4.50881C3.65598 4.5103 2.67345 5.01173 1.94923 5.90379C1.22501 6.79584 0.819262 8.00444 0.820425 9.26444C0.822215 11.2044 0.824255 13.4144 0.825554 14.8224C0.826647 16.0064 1.44361 17.0565 2.35778 17.4292L2.45547 17.4691ZM4.68543 9.00881L6.3129 9.00643C6.64979 9.00594 6.92289 8.66955 6.92251 8.25555C6.92213 7.84155 6.6484 7.50594 6.31152 7.50644L4.68405 7.50881C4.34716 7.5093 4.07406 7.8457 4.07444 8.25969C4.07482 8.67369 4.34855 9.0093 4.68543 9.00881Z" fill="#0A81D7"/>
</svg>
