<svg width="1024" height="1024" viewBox="0 0 1024 1024" fill="none" xmlns="http://www.w3.org/2000/svg">
<path d="M907.81 639.25C907.72 638.02 907.61 636.81 907.49 635.57C901.26 572.78 865.93 516.15 812.5 482.65V284.5H832C838.9 284.5 844.5 278.9 844.5 272V206.1C844.5 182.61 825.39 163.5 801.9 163.5H158.1C134.61 163.5 115.5 182.61 115.5 206.1V272C115.5 278.9 121.1 284.5 128 284.5H147.5V759.27C147.5 779.8 164.2 796.5 184.73 796.5H555.41C593.95 837.24 647.78 860.5 704 860.5C736.72 860.5 767.98 853 796.92 838.22C824.52 824.12 848.96 803.54 867.6 778.72C875.09 768.77 881.72 758.02 887.32 746.76C901.37 718.41 908.5 687.87 908.5 656.01C908.5 650.41 908.27 644.78 907.81 639.25ZM140.5 206.1C140.5 196.39 148.4 188.5 158.1 188.5H801.9C811.61 188.5 819.5 196.4 819.5 206.1V259.5H800H160H140.5V206.1ZM864.93 735.63C860.02 745.51 854.2 754.95 847.62 763.69C813.36 809.32 761.01 835.49 704.01 835.49C653 835.49 604.23 813.68 570.21 775.65C566.8 771.85 563.5 767.82 560.39 763.67C553.82 754.93 547.99 745.5 543.1 735.66C541.75 732.91 540.55 730.34 539.43 727.78C534.87 717.34 531.32 706.46 528.86 695.42C525.97 682.56 524.5 669.29 524.5 655.98H499.5C499.5 671.13 501.17 686.25 504.46 700.87C507.26 713.45 511.31 725.86 516.52 737.78C517.77 740.65 519.17 743.65 520.69 746.75C524.96 755.33 529.83 763.62 535.23 771.48H184.73C177.99 771.48 172.5 765.99 172.5 759.25V284.5H787.5V469.29C786.94 469.04 786.37 468.77 785.81 468.52C767 460.29 747.08 454.98 726.61 452.73C719.09 451.91 711.48 451.5 704 451.5C671.6 451.5 640.6 458.86 611.87 473.38C591.34 483.76 572.51 497.73 556.5 514.37V448H531.5V544C531.5 550.9 537.1 556.5 544 556.5H640V531.5H574.66C608.39 496.32 654.5 476.5 704 476.5C710.58 476.5 717.28 476.87 723.89 477.58C741.83 479.55 759.29 484.21 775.8 491.43C781.88 494.08 787.92 497.14 793.74 500.5C843.71 529.39 876.93 580.8 882.61 638C882.71 639.02 882.81 640.04 882.88 641.07C882.88 641.12 882.89 641.17 882.89 641.22C883.29 646.09 883.5 651.06 883.5 655.99C883.5 683.98 877.25 710.78 864.93 735.63Z" fill="#BFBFBF"/>
<path d="M604.5 365C604.5 342.12 585.88 323.5 563 323.5H397C374.12 323.5 355.5 342.12 355.5 365C355.5 387.88 374.12 406.5 397 406.5H563C585.88 406.5 604.5 387.88 604.5 365ZM380.5 365C380.5 355.9 387.9 348.5 397 348.5H563C572.1 348.5 579.5 355.9 579.5 365C579.5 374.1 572.1 381.5 563 381.5H397C387.9 381.5 380.5 374.1 380.5 365Z" fill="#BFBFBF"/>
<path d="M368 659.5H256V684.5H368V659.5Z" fill="#BFBFBF"/>
<path d="M716.5 544H691.5V656C691.5 659.32 692.82 662.49 695.16 664.84L791.16 760.84L808.84 743.16L716.5 650.82V544Z" fill="#BFBFBF"/>
</svg>
