<svg width="32" height="32" viewBox="0 0 32 32" fill="none" xmlns="http://www.w3.org/2000/svg">
<circle cx="16" cy="16" r="16" fill="#1F292E"/>
<path d="M9.5 18.5H22.5C22.7761 18.5 23 18.2761 23 18V11C23 10.7239 22.7761 10.5 22.5 10.5L9.5 10.5C9.22386 10.5 9 10.7239 9 11L9 18C9 18.2761 9.22386 18.5 9.5 18.5Z" stroke="#2D89D4" stroke-width="1.5" stroke-linejoin="round"/>
<path d="M10 20H22M11 21.5H21" stroke="#2D89D4" stroke-width="1.5" stroke-linecap="round" stroke-linejoin="round"/>
<path d="M16 17C17.3807 17 18.5 15.8807 18.5 14.5C18.5 13.1193 17.3807 12 16 12C14.6193 12 13.5 13.1193 13.5 14.5C13.5 15.8807 14.6193 17 16 17Z" stroke="#2D89D4" stroke-width="1.5" stroke-linecap="round" stroke-linejoin="round"/>
<path d="M23 13C22.337 13 21.7011 12.7366 21.2322 12.2678C20.7634 11.7989 20.5 11.163 20.5 10.5M9 13C9.3283 13 9.65339 12.9353 9.95671 12.8097C10.26 12.6841 10.5356 12.4999 10.7678 12.2678C10.9999 12.0356 11.1841 11.76 11.3097 11.4567C11.4353 11.1534 11.5 10.8283 11.5 10.5M23 16C22.337 16 21.7011 16.2634 21.2322 16.7322C20.7634 17.2011 20.5 17.837 20.5 18.5M9 16C9.3283 16 9.65339 16.0647 9.95671 16.1903C10.26 16.3159 10.5356 16.5001 10.7678 16.7322C10.9999 16.9644 11.1841 17.24 11.3097 17.5433C11.4353 17.8466 11.5 18.1717 11.5 18.5" stroke="#2D89D4" stroke-width="1.5" stroke-linecap="round" stroke-linejoin="round"/>
</svg>
