<svg width="12" height="12" viewBox="0 0 12 12" fill="none" xmlns="http://www.w3.org/2000/svg">
<defs>
<linearGradient id="paint0_linear_46_2264" x1="1" y1="6.04305" x2="10.9142" y2="6.04305" gradientUnits="userSpaceOnUse">
<stop stop-color="#2D89D4"/>
<stop offset="1" stop-color="#235CA1"/>
</linearGradient>
<clipPath id="clip0_46_2264">
<rect width="12" height="12" fill="white"/>
</clipPath>
</defs>
<g clip-path="url(#clip0_46_2264)">
<path d="M8.5 1.50015C8.63132 1.36883 8.78722 1.26466 8.9588 1.19359C9.13038 1.12252 9.31428 1.08594 9.5 1.08594C9.68572 1.08594 9.86962 1.12252 10.0412 1.19359C10.2128 1.26466 10.3687 1.36883 10.5 1.50015C10.6313 1.63147 10.7355 1.78737 10.8066 1.95895C10.8776 2.13054 10.9142 2.31443 10.9142 2.50015C10.9142 2.68587 10.8776 2.86977 10.8066 3.04135C10.7355 3.21293 10.6313 3.36883 10.5 3.50015L3.75 10.2502L1 11.0002L1.75 8.25015L8.5 1.50015Z" stroke="url(#paint0_linear_46_2264)" stroke-width="2" stroke-linecap="round" stroke-linejoin="round"/>
</g>
</svg>
