<svg width="32" height="32" viewBox="0 0 32 32" fill="none" xmlns="http://www.w3.org/2000/svg">
<circle cx="16" cy="16" r="16" fill="#1F292E"/>
<path d="M15.9 8C14.2026 8 12.5747 8.67428 11.3745 9.87451C10.1743 11.0747 9.5 12.7026 9.5 14.4C9.5 18.72 15.14 23.5999 15.38 23.8079C15.5249 23.9319 15.7093 24 15.9 24C16.0907 24 16.2751 23.9319 16.42 23.8079C16.7 23.5999 22.3 18.72 22.3 14.4C22.3 12.7026 21.6257 11.0747 20.4254 9.87451C19.2252 8.67428 17.5974 8 15.9 8ZM15.9 22.12C14.196 20.52 11.1 17.072 11.1 14.4C11.1 13.1269 11.6057 11.906 12.5059 11.0059C13.406 10.1057 14.6269 9.59999 15.9 9.59999C17.173 9.59999 18.3939 10.1057 19.2941 11.0059C20.1943 11.906 20.7 13.1269 20.7 14.4C20.7 17.072 17.604 20.528 15.9 22.12ZM15.9 11.2C15.2671 11.2 14.6484 11.3877 14.1222 11.7393C13.5959 12.0909 13.1858 12.5907 12.9436 13.1754C12.7014 13.7601 12.638 14.4035 12.7615 15.0243C12.8849 15.645 13.1897 16.2152 13.6372 16.6627C14.0848 17.1102 14.655 17.415 15.2757 17.5385C15.8964 17.662 16.5398 17.5986 17.1246 17.3564C17.7093 17.1142 18.2091 16.704 18.5607 16.1778C18.9123 15.6516 19.1 15.0329 19.1 14.4C19.1 13.5513 18.7628 12.7374 18.1627 12.1372C17.5626 11.5371 16.7487 11.2 15.9 11.2ZM15.9 16C15.5835 16 15.2742 15.9061 15.0111 15.7303C14.748 15.5545 14.5429 15.3046 14.4218 15.0123C14.3007 14.7199 14.269 14.3982 14.3307 14.0878C14.3925 13.7775 14.5448 13.4924 14.7686 13.2686C14.9924 13.0448 15.2775 12.8925 15.5878 12.8307C15.8982 12.769 16.2199 12.8007 16.5123 12.9218C16.8046 13.0429 17.0545 13.248 17.2303 13.5111C17.4061 13.7742 17.5 14.0835 17.5 14.4C17.5 14.8243 17.3314 15.2313 17.0313 15.5313C16.7313 15.8314 16.3243 16 15.9 16Z" fill="#2D89D4"/>
</svg>
