<svg width="128" height="128" viewBox="0 0 128 128" fill="none" xmlns="http://www.w3.org/2000/svg">
<path d="M112 53.3334C112 90.6667 64 122.667 64 122.667C64 122.667 16 90.6667 16 53.3334C16 40.603 21.0571 28.394 30.0589 19.3922C39.0606 10.3905 51.2696 5.33337 64 5.33337C76.7304 5.33337 88.9394 10.3905 97.9411 19.3922C106.943 28.394 112 40.603 112 53.3334Z" fill="#E34E3C"/>
<path d="M64 69.3334C72.8366 69.3334 80 62.1699 80 53.3334C80 44.4968 72.8366 37.3334 64 37.3334C55.1634 37.3334 48 44.4968 48 53.3334C48 62.1699 55.1634 69.3334 64 69.3334Z" fill="#1F292E"/>
</svg>
