<svg width="1707" height="1707" viewBox="0 0 1707 1707" fill="none" xmlns="http://www.w3.org/2000/svg">
<path fill-rule="evenodd" clip-rule="evenodd" d="M899 569C889 569 881 562 878 553L818 367L635 303C615 296 615 268 634 260L1056 96C1074 89 1092 107 1085 125L920 554C917 563 909 569 899 569ZM98 1705C89 1702 82 1693 82 1683V714L87 699C95 689 340 506 372 482V23C372 11 382 1 395 1H1312C1324 1 1334 11 1334 23V482L1615 695L1619 699L1624 714V1683C1624 1696 1614 1706 1601 1706H105L98 1705ZM143 713L372 888V539L143 713ZM704 1140L853 1253L1289 922V46H417V922L704 1140ZM1579 1638V759L1001 1198L1579 1638ZM840 1300L743 1227L172 1661H1534L963 1227C943 1242 881 1292 865 1301C857 1306 848 1305 840 1300ZM169 791L128 759V1638L706 1198L169 791ZM1334 888L1564 714L1334 539V888ZM1161 954H546C516 954 516 909 546 909H1161C1190 909 1190 954 1161 954ZM1161 823H546C516 823 516 778 546 778H1161C1190 778 1190 823 1161 823ZM1161 692H546C516 692 516 647 546 647H1161C1190 647 1190 692 1161 692ZM708 280L844 328C850 330 856 336 858 343L901 478L1024 157L708 280Z" fill="#2D89D4"/>
</svg>
