<svg width="28" height="19" viewBox="0 0 28 19" fill="none" xmlns="http://www.w3.org/2000/svg">
<path d="M4.00509 6.00001H4.00009C4.00009 3.36001 5.71009 1.11001 8.10009 0.310014C8.75009 0.0900141 9.28009 0.870013 8.84009 1.40001L7.50209 3.00001H8.51009C8.79009 3.00001 9.01009 3.22001 9.01009 3.50001C9.01009 3.78001 8.78009 4.00001 8.51009 4.00001H12.0001C13.1001 4.00001 14.0001 4.90001 14.0001 6.00001H21.0001V4.97001C21.0001 4.44001 21.4301 4.00001 21.9701 4.00001H26.0201C26.5601 4.00001 27.0001 4.44001 27.0101 4.97001V5.08001C27.0101 5.40201 26.9421 5.71401 26.8121 6.00001H25.0001V6.01001C24.4501 6.01001 24.0001 6.46001 24.0001 7.01001C24.0001 7.47001 24.3101 7.83001 24.7301 7.95001H24.7631C23.8791 8.53801 22.9131 9.00301 21.9101 9.38001C21.4223 9.5628 20.9607 9.80891 20.5371 10.112L21.1191 10.681C21.9099 10.1883 22.8341 9.95317 23.7642 10.0081C24.6943 10.0631 25.5844 10.4054 26.3117 10.9878C27.039 11.5702 27.5675 12.364 27.8244 13.2596C28.0813 14.1552 28.0538 15.1085 27.7458 15.9878C27.4379 16.8672 26.8645 17.6292 26.1049 18.1688C25.3454 18.7084 24.437 18.9989 23.5053 19.0003C22.5736 19.0016 21.6644 18.7137 20.9033 18.1763C20.1421 17.6389 19.5666 16.8785 19.2561 16H17.7601C17.4181 16.594 16.7491 17 16.0001 17H12.0001C10.9171 17 10.0001 16.04 10.0001 15C10.0001 14.283 9.87308 13.625 9.65708 13C9.53739 12.6575 9.39474 12.3234 9.23008 12H9.22009C9.13403 11.8388 9.04162 11.681 8.94308 11.527L8.31808 12.117C8.90413 13.0554 9.12392 14.1769 8.93546 15.2671C8.74701 16.3573 8.16352 17.3399 7.29646 18.0272C6.42939 18.7144 5.33954 19.0582 4.23508 18.9927C3.13062 18.9273 2.08898 18.4573 1.30913 17.6725C0.529285 16.8876 0.0659018 15.843 0.00749887 14.7382C-0.0509041 13.6333 0.299767 12.5457 0.992525 11.683C1.68528 10.8203 2.67157 10.2431 3.76297 10.0616C4.85438 9.88008 5.9744 10.107 6.90909 10.699L7.61509 10.007C7.22185 9.67473 6.79049 9.3904 6.33009 9.16001L5.78209 8.88601C5.92039 8.61081 5.9949 8.30797 6.00009 8.00001C5.99851 7.47093 5.78798 6.96389 5.41432 6.5893C5.04067 6.21472 4.53416 6.00291 4.00509 6.00001ZM18.8201 12H18.7971C18.6071 12.315 18.4501 12.65 18.3281 13C18.2121 13.33 18.1281 13.675 18.0731 14.03H19.0241C19.0961 13.337 19.3251 12.69 19.6751 12.128L19.0871 11.581C18.9924 11.717 18.9033 11.8568 18.8201 12ZM23.3471 13.008C22.958 13.0484 22.6 13.2391 22.3496 13.5396C22.0991 13.8401 21.9759 14.2266 22.0063 14.6166C22.0367 15.0066 22.2183 15.3693 22.5123 15.6273C22.8063 15.8854 23.1895 16.0184 23.5801 15.998C23.9708 15.9775 24.338 15.8053 24.6035 15.518C24.869 15.2307 25.0117 14.851 25.0013 14.46C24.9908 14.0689 24.828 13.6974 24.5476 13.4247C24.2672 13.152 23.8913 12.9996 23.5001 13H23.4901C23.4421 13 23.3941 13.003 23.3471 13.008ZM4.55809 13H4.50009C4.10477 13.0008 3.72577 13.1577 3.44548 13.4365C3.16519 13.7152 3.00627 14.0934 3.00327 14.4887C3.00028 14.884 3.15346 15.2645 3.4295 15.5474C3.70553 15.8304 4.08212 15.993 4.47737 15.9998C4.87263 16.0066 5.25459 15.8571 5.54022 15.5838C5.82585 15.3105 5.99205 14.9355 6.00269 14.5404C6.01332 14.1452 5.86754 13.7618 5.59702 13.4735C5.3265 13.1853 4.95313 13.0145 4.55809 13ZM7.01009 7.00001C7.01009 7.55001 7.46009 8.00001 8.01009 8.00001H9.01009V6.00001H8.01009C7.46009 6.00001 7.01009 6.45001 7.01009 7.00001ZM10.7071 13C10.8911 13.62 11.0001 14.283 11.0001 15C11.0001 15.502 11.4831 16 12.0001 16H16.0001C16.5901 16 17.0001 15.54 17.0001 15.11V15C17.0001 14.315 17.0911 13.642 17.2781 13H10.7071Z" fill="#235CA1"/>
</svg>
