<svg width="32" height="32" viewBox="0 0 32 32" fill="none" xmlns="http://www.w3.org/2000/svg">
<defs>
<clipPath id="clip0_929_2647">
<rect width="16" height="16" fill="white" transform="translate(8 8)"/>
</clipPath>
</defs>
<circle cx="16" cy="16" r="16" fill="#1F292E"/>
<g clip-path="url(#clip0_929_2647)">
<path d="M22.6667 19.2802V21.2802C22.6674 21.4659 22.6294 21.6497 22.555 21.8198C22.4806 21.9899 22.3715 22.1426 22.2347 22.2681C22.0979 22.3937 21.9364 22.4892 21.7605 22.5487C21.5846 22.6082 21.3983 22.6303 21.2133 22.6136C19.1619 22.3907 17.1913 21.6897 15.46 20.5669C13.8492 19.5433 12.4836 18.1777 11.46 16.5669C10.3333 14.8277 9.63217 12.8476 9.41334 10.7869C9.39668 10.6025 9.41859 10.4167 9.47767 10.2413C9.53676 10.0659 9.63172 9.90469 9.75652 9.76797C9.88131 9.63126 10.0332 9.52203 10.2025 9.44724C10.3719 9.37245 10.5549 9.33374 10.74 9.33356H12.74C13.0635 9.33038 13.3772 9.44495 13.6225 9.65592C13.8678 9.86689 14.0281 10.1599 14.0733 10.4802C14.1578 11.1203 14.3143 11.7487 14.54 12.3536C14.6297 12.5922 14.6491 12.8515 14.5959 13.1008C14.5428 13.3501 14.4192 13.579 14.24 13.7602L13.3933 14.6069C14.3424 16.2759 15.7243 17.6579 17.3933 18.6069L18.24 17.7602C18.4213 17.581 18.6501 17.4575 18.8994 17.4043C19.1487 17.3511 19.4081 17.3705 19.6467 17.4602C20.2515 17.6859 20.88 17.8425 21.52 17.9269C21.8439 17.9726 22.1396 18.1357 22.351 18.3852C22.5624 18.6347 22.6748 18.9533 22.6667 19.2802Z" stroke="#2D89D4" stroke-width="2" stroke-linecap="round" stroke-linejoin="round"/>
</g>
</svg>
