<svg width="32" height="32" viewBox="0 0 32 32" fill="none" xmlns="http://www.w3.org/2000/svg">
<circle cx="16" cy="16" r="16" fill="#1F292E"/>
<path d="M21.3332 22V20.6667C21.3332 19.9594 21.0522 19.2811 20.5521 18.781C20.052 18.281 19.3737 18 18.6665 18H13.3332C12.6259 18 11.9476 18.281 11.4476 18.781C10.9475 19.2811 10.6665 19.9594 10.6665 20.6667V22" stroke="#2D89D4" stroke-width="2" stroke-linecap="round" stroke-linejoin="round"/>
<path d="M16.0002 15.3333C17.4729 15.3333 18.6668 14.1394 18.6668 12.6667C18.6668 11.1939 17.4729 10 16.0002 10C14.5274 10 13.3335 11.1939 13.3335 12.6667C13.3335 14.1394 14.5274 15.3333 16.0002 15.3333Z" stroke="#2D89D4" stroke-width="2" stroke-linecap="round" stroke-linejoin="round"/>
</svg>
