<svg width="48" height="48" viewBox="0 0 48 48" fill="none" xmlns="http://www.w3.org/2000/svg">
<path fill-rule="evenodd" clip-rule="evenodd" d="M14.2975 42.5952L23.4667 38.9795C24.1739 38.7006 24.9606 38.7006 25.6678 38.9795L36.8022 43.3701L36.1489 31.1237C36.1098 30.3907 36.3407 29.6689 36.798 29.0948L44.404 19.5453L32.9477 16.437L28.7662 22.6005L25.8451 26.5771L23.8976 29.0624L20.0028 34.5301L14.2975 42.5952ZM23.7224 2.46503C24.115 1.84499 25.0195 1.84499 25.4121 2.46503L32.739 14.0361C32.8727 14.2473 33.0807 14.4008 33.322 14.4662L46.3957 18.0134C47.0897 18.2017 47.3641 19.0391 46.9161 19.6015L38.3624 30.3408C38.21 30.5322 38.133 30.7728 38.146 31.0171L38.8823 44.8182C38.9211 45.5455 38.1944 46.069 37.5169 45.8018L24.9341 40.8401C24.6984 40.7471 24.4361 40.7471 24.2004 40.8401L11.6176 45.8018C10.9401 46.069 10.2134 45.5455 10.2522 44.8182L10.9885 31.0171C11.0015 30.7728 10.9245 30.5322 10.7721 30.3408L2.21843 19.6015C1.77042 19.0391 2.04478 18.2017 2.73879 18.0134L15.8125 14.4662C16.0538 14.4008 16.2618 14.2473 16.3955 14.0361L23.7224 2.46503Z" fill="#FAD25C"/>
</svg>
